HIERARCHY
ROOT Hips
{
    OFFSET 0.000000 0.000000 0.000000
    CHANNELS 6 Xposition Yposition Zposition Zrotation Xrotation Yrotation
    JOINT Spine
    {
        OFFSET -0.000000 8.603107 0.000000
        CHANNELS 3 Zrotation Xrotation Yrotation
        JOINT Spine1
        {
            OFFSET -0.000000 23.906662 0.000000
            CHANNELS 3 Zrotation Xrotation Yrotation
            JOINT Neck
            {
                OFFSET -0.000000 23.808481 2.164407
                CHANNELS 3 Zrotation Xrotation Yrotation
                JOINT Head
                {
                    OFFSET -0.000000 14.688231 -2.098319
                    CHANNELS 3 Zrotation Xrotation Yrotation
                    End Site
                    {
                        OFFSET -0.000000 26.228985 0.000000
                    }
                }
            }
            JOINT LeftShoulder
            {
                OFFSET 4.178941 22.658146 -0.129871
                CHANNELS 3 Zrotation Xrotation Yrotation
                JOINT LeftArm
                {
                    OFFSET 9.497952 0.000000 0.000000
                    CHANNELS 3 Zrotation Xrotation Yrotation
                    JOINT LeftForeArm
                    {
                        OFFSET 38.855015 0.000000 0.000000
                        CHANNELS 3 Zrotation Xrotation Yrotation
                        JOINT LeftHand
                        {
                            OFFSET 24.940550 0.000000 0.000000
                            CHANNELS 3 Zrotation Xrotation Yrotation
                            End Site
                            {
                                OFFSET 15.737392 0.000000 0.000000
                            }
                        }
                    }
                }
            }
            JOINT RightShoulder
            {
                OFFSET -4.145384 22.658146 -0.129871
                CHANNELS 3 Zrotation Xrotation Yrotation
                JOINT RightArm
                {
                    OFFSET -9.497952 0.000000 0.000000
                    CHANNELS 3 Zrotation Xrotation Yrotation
                    JOINT RightForeArm
                    {
                        OFFSET -38.855015 0.000000 0.000000
                        CHANNELS 3 Zrotation Xrotation Yrotation
                        JOINT RightHand
                        {
                            OFFSET -24.940550 0.000000 0.000000
                            CHANNELS 3 Zrotation Xrotation Yrotation
                            End Site
                            {
                                OFFSET -15.737392 0.000000 0.000000
                            }
                        }
                    }
                }
            }
        }
    }
    JOINT LeftUpLeg
    {
        OFFSET 10.491594 0.000000 0.000000
        CHANNELS 3 Zrotation Xrotation Yrotation
        JOINT LeftLeg
        {
            OFFSET -0.000000 -46.080647 0.000000
            CHANNELS 3 Zrotation Xrotation Yrotation
            JOINT LeftFoot
            {
                OFFSET -0.000000 -50.184704 0.000000
                CHANNELS 3 Zrotation Xrotation Yrotation
                JOINT LeftToeBase
                {
                    OFFSET -0.000000 -6.819536 15.737392
                    CHANNELS 3 Zrotation Xrotation Yrotation
                    End Site
                    {
                        OFFSET -0.000000 0.000000 4.196638
                    }
                }
            }
        }
    }
    JOINT RightUpLeg
    {
        OFFSET -10.491594 0.000000 0.000000
        CHANNELS 3 Zrotation Xrotation Yrotation
        JOINT RightLeg
        {
            OFFSET -0.000000 -46.080647 0.000000
            CHANNELS 3 Zrotation Xrotation Yrotation
            JOINT RightFoot
            {
                OFFSET -0.000000 -50.184704 0.000000
                CHANNELS 3 Zrotation Xrotation Yrotation
                JOINT RightToeBase
                {
                    OFFSET -0.000000 -6.819536 15.737392
                    CHANNELS 3 Zrotation Xrotation Yrotation
                    End Site
                    {
                        OFFSET -0.000000 0.000000 4.196638
                    }
                }
            }
        }
    }
}
MOTION
Frames:    5
Frame Time:    0.008333
-10.096602    103.527298    40.817772    -1.541725    1.221666    92.309128    -6.441002    -9.358812    -2.454525    10.450271    2.478318    -2.153531    2.859974    11.689523    1.595535    -0.301866    -1.638831    1.490826    12.954324    -6.954625    -16.655945    -7.523226    -13.850452    -15.610350    5.635021    -23.492228    -3.843888    7.695035    -22.648382    10.791835    5.348487    12.794483    -7.115136    27.668737    58.761845    41.014008    1.938632    -13.217078    7.976281    9.639330    -13.224522    1.511532    -1.783465    -1.133443    -0.343991    -2.808383    8.257813    1.234640    -0.169837    -7.509896    14.755424    0.000000    0.000000    0.000000    -1.823181    3.081692    -2.040839    2.768079    -0.966469    -0.616305    -1.190005    -3.185166    -11.633725    0.000000    0.000000    0.000000    
-10.102078    103.526756    40.817787    -1.551438    1.223788    92.358002    -6.462309    -9.357473    -2.441026    10.446644    2.467869    -2.137289    2.923038    11.693757    1.582039    -0.356493    -1.655694    1.465593    13.070637    -7.061300    -16.682974    -7.676493    -13.738269    -15.649720    5.684889    -23.114311    -4.143612    8.351503    -22.186819    10.912896    5.382926    12.779294    -7.157987    27.584183    58.777531    41.056084    1.928147    -13.233880    7.999444    9.786308    -13.234366    1.568213    -1.791346    -1.151576    -0.337458    -2.789658    8.265264    1.198096    -0.162701    -7.507672    14.736206    0.000000    0.000000    0.000000    -1.823416    3.068680    -2.040655    2.769882    -0.954740    -0.644932    -1.202287    -3.197789    -11.652100    0.000000    0.000000    0.000000    
-10.100995    103.525398    40.817707    -1.545817    1.219557    92.403107    -6.475227    -9.359676    -2.441138    10.465101    2.489988    -2.138684    2.900265    11.666579    1.587315    -0.361271    -1.652281    1.470614    13.065104    -7.066429    -16.668344    -7.648812    -13.636698    -15.707928    5.822587    -22.897871    -4.436758    8.151008    -21.980934    10.722817    5.343168    12.773849    -7.169693    27.591303    58.747330    41.085560    1.968864    -13.265999    8.043390    9.600239    -13.283691    1.431078    -1.786236    -1.148034    -0.344149    -2.792773    8.263630    1.165159    -0.168786    -7.511713    14.744132    0.000000    0.000000    0.000000    -1.815264    3.067770    -2.086270    2.766728    -0.931982    -0.619767    -1.226502    -3.205153    -11.678288    0.000000    0.000000    0.000000    
-10.103660    103.525497    40.817429    -1.550027    1.222583    92.449448    -6.484987    -9.366586    -2.443434    10.457110    2.498043    -2.140322    2.869319    11.658039    1.577151    -0.345380    -1.649804    1.463598    13.064336    -7.070718    -16.674492    -7.605239    -13.509647    -15.738572    5.843870    -22.820742    -4.743509    8.429670    -21.879129    10.497372    5.338760    12.779147    -7.151776    27.592983    58.712311    41.092693    1.940937    -13.248709    8.028880    9.779649    -13.257286    1.488524    -1.789535    -1.156542    -0.361057    -2.789392    8.264877    1.141592    -0.149251    -7.503759    14.736315    0.000000    0.000000    0.000000    -1.814201    3.064750    -2.081348    2.765169    -0.925915    -0.640861    -1.228901    -3.217049    -11.702763    0.000000    0.000000    0.000000    
-10.102236    103.525314    40.818077    -1.553162    1.223438    92.511017    -6.488209    -9.362033    -2.450723    10.428059    2.477570    -2.145104    2.881790    11.690565    1.577235    -0.372948    -1.679307    1.459633    13.080874    -7.036241    -16.702703    -7.557723    -13.407836    -15.770801    5.958937    -22.827478    -5.078761    8.128555    -21.898901    10.379496    5.359067    12.789046    -7.143710    27.599155    58.687630    41.081470    1.950982    -13.230577    8.031886    9.711249    -13.242662    1.465396    -1.791213    -1.159716    -0.387254    -2.782924    8.256168    1.127951    -0.176331    -7.504525    14.713992    0.000000    0.000000    0.000000    -1.813852    3.066288    -2.102746    2.770026    -0.917758    -0.646237    -1.238939    -3.223550    -11.741879    0.000000    0.000000    0.000000    
